<svg height="402pt" viewBox="-14 0 402 402.074" width="402pt" xmlns="http://www.w3.org/2000/svg"><path d="m41.621094 0h291.101562c22.96875 0 41.589844 18.617188 41.589844 41.585938v318.828124c0 22.96875-18.621094 41.585938-41.589844 41.585938h-291.101562c-22.96875 0-41.5859378-18.617188-41.5859378-41.585938v-318.828124c0-22.96875 18.6171878-41.585938 41.5859378-41.585938zm0 0" fill="#f47181"/><path d="m346.585938 41.585938v318.828124c0 7.65625-6.207032 13.863282-13.863282 13.863282h-291.101562c-7.65625 0-13.863282-6.207032-13.863282-13.863282v-318.828124c0-7.65625 6.207032-13.863282 13.863282-13.863282h291.101562c7.65625 0 13.863282 6.207032 13.863282 13.863282zm0 0" fill="#fca7b1"/><path d="m62.414062 55.449219h249.515626v97.035156h-249.515626zm0 0" fill="#e6f5fc"/><path d="m143.554688 99.066406c-2.707032-2.707031-7.09375-2.707031-9.800782 0-1.300781 1.296875-2.03125 3.0625-2.03125 4.902344v20.792969c0 3.828125 3.105469 6.929687 6.929688 6.929687 3.828125 0 6.933594-3.105468 6.933594-6.929687v-4.0625l31.785156 31.785156h16.730468c.003907-1.839844-.726562-3.601563-2.03125-4.902344zm0 0" fill="#f47181"/><path d="m187.171875 83.171875c-3.828125 0-6.929687-3.101563-6.929687-6.925781 0-.003906 0-.003906 0-.003906v-20.792969c0-3.828125 3.101562-6.929688 6.929687-6.929688s6.929687 3.101563 6.929687 6.929688v20.792969c.003907 3.828124-3.101562 6.929687-6.925781 6.929687zm0 0" fill="#fca7b1"/><path d="m110.9375 90.101562c-2.628906.003907-5.03125-1.480468-6.207031-3.828124l-13.863281-27.722657c-1.710938-3.425781-.324219-7.589843 3.101562-9.300781 3.421875-1.714844 7.585938-.324219 9.300781 3.097656l13.863281 27.722656c1.710938 3.425782.324219 7.589844-3.097656 9.300782-.964844.480468-2.023437.730468-3.097656.730468zm0 0" fill="#fca7b1"/><path d="m263.40625 90.101562c-3.828125 0-6.925781-3.105468-6.925781-6.933593 0-1.074219.253906-2.136719.734375-3.097657l13.863281-27.722656c1.710937-3.421875 5.875-4.8125 9.296875-3.097656 3.425781 1.710938 4.8125 5.875 3.101562 9.300781l-13.863281 27.722657c-1.175781 2.347656-3.578125 3.832031-6.207031 3.828124zm0 0" fill="#fca7b1"/><g fill="#fff"><path d="m110.929688 381.207031h-34.652344c-3.832032 0-6.933594-3.105469-6.933594-6.929687 0-3.828125 3.105469-6.933594 6.933594-6.933594h34.652344c3.828124 0 6.933593 3.105469 6.933593 6.933594 0 3.824218-3.105469 6.929687-6.933593 6.929687zm0 0"/><path d="m298.070312 381.207031h-34.65625c-3.828124 0-6.933593-3.105469-6.933593-6.929687 0-3.828125 3.105469-6.933594 6.933593-6.933594h34.65625c3.828126 0 6.929688 3.105469 6.929688 6.933594 0 3.824218-3.101562 6.929687-6.929688 6.929687zm0 0"/><path d="m187.171875 201c-3.828125 0-6.929687-3.101562-6.929687-6.925781 0-.003907 0-.003907 0-.003907v-13.863281c0-3.828125 3.101562-6.929687 6.929687-6.929687s6.929687 3.101562 6.929687 6.929687v13.863281c.003907 3.828126-3.101562 6.929688-6.925781 6.929688zm0 0"/><path d="m187.171875 353.484375c-3.828125 0-6.929687-3.101563-6.929687-6.929687 0 0 0 0 0-.003907v-124.757812c0-3.828125 3.101562-6.929688 6.929687-6.929688s6.929687 3.101563 6.929687 6.929688v124.757812c.003907 3.828125-3.101562 6.933594-6.925781 6.933594zm0 0"/><path d="m88.234375 235.03125 10.363281-4.144531c3.535156-1.414063 7.386719-1.832031 11.140625-1.207031l14.210938 2.371093c11.328125 1.886719 18.980469 12.597657 17.089843 23.925781-.058593.367188-.128906.730469-.210937 1.09375l-8.609375 38.734376c-.328125 1.484374-.492188 2.996093-.492188 4.511718v18.511719c0 11.484375-9.3125 20.792969-20.792968 20.792969-11.484375 0-20.792969-9.308594-20.792969-20.792969v-17.023437c0-2.492188-.449219-4.964844-1.324219-7.300782l-12.328125-32.867187c-3.96875-10.585938 1.246094-22.40625 11.746094-26.605469zm0 0"/><path d="m90.136719 221.792969c-1.835938.003906-3.601563-.730469-4.898438-2.03125l-6.929687-6.929688c-2.703125-2.710937-2.699219-7.097656.007812-9.800781 2.707032-2.699219 7.085938-2.699219 9.789063 0l6.933593 6.929688c2.707032 2.707031 2.703126 7.097656-.003906 9.804687-1.296875 1.296875-3.0625 2.027344-4.898437 2.027344zm0 0"/><path d="m110.929688 214.863281c-3.824219 0-6.929688-3.101562-6.929688-6.929687v-6.933594c0-3.828125 3.105469-6.929688 6.929688-6.929688 3.828124 0 6.933593 3.101563 6.933593 6.929688v6.933594c0 3.824218-3.101562 6.929687-6.929687 6.929687 0 0 0 0-.003906 0zm0 0"/><path d="m131.722656 221.792969c-3.828125 0-6.929687-3.105469-6.929687-6.933594 0-1.835937.730469-3.597656 2.03125-4.898437l6.929687-6.929688c2.710938-2.703125 7.097656-2.699219 9.800782.011719 2.699218 2.703125 2.699218 7.082031 0 9.789062l-6.929688 6.929688c-1.300781 1.300781-3.0625 2.035156-4.902344 2.03125zm0 0"/><path d="m69.34375 235.65625c-1.835938 0-3.601562-.730469-4.898438-2.03125l-6.929687-6.929688c-2.707031-2.710937-2.703125-7.097656.003906-9.800781s7.089844-2.703125 9.792969 0l6.933594 6.929688c2.707031 2.707031 2.703125 7.097656-.003906 9.804687-1.296876 1.296875-3.058594 2.027344-4.898438 2.027344zm0 0"/><path d="m286.109375 235.03125-10.363281-4.144531c-3.53125-1.414063-7.386719-1.832031-11.140625-1.207031l-14.210938 2.371093c-11.324219 1.886719-18.976562 12.597657-17.089843 23.925781.0625.367188.132812.730469.210937 1.09375l8.609375 38.734376c.328125 1.484374.496094 2.996093.496094 4.511718v18.511719c0 11.484375 9.308594 20.792969 20.789062 20.792969h.003906c11.484376 0 20.792969-9.308594 20.792969-20.792969v-17.023437c0-2.492188.449219-4.964844 1.324219-7.300782l12.324219-32.867187c3.96875-10.585938-1.246094-22.40625-11.746094-26.605469zm0 0"/><path d="m284.207031 221.792969c-3.828125 0-6.929687-3.105469-6.929687-6.933594 0-1.835937.730468-3.597656 2.03125-4.898437l6.929687-6.929688c2.707031-2.707031 7.09375-2.707031 9.800781 0 2.707032 2.707031 2.707032 7.09375 0 9.800781l-6.933593 6.929688c-1.296875 1.300781-3.058594 2.035156-4.898438 2.03125zm0 0"/><path d="m263.414062 214.863281c-3.828124 0-6.929687-3.101562-6.929687-6.929687v-6.933594c0-3.828125 3.101563-6.929688 6.929687-6.929688 3.828126 0 6.929688 3.101563 6.929688 6.929688v6.933594c0 3.824218-3.101562 6.929687-6.925781 6.929687-.003907 0-.003907 0-.003907 0zm0 0"/><path d="m242.621094 221.792969c-1.839844.003906-3.601563-.730469-4.902344-2.03125l-6.929688-6.929688c-2.707031-2.707031-2.707031-7.09375 0-9.800781 2.707032-2.707031 7.09375-2.707031 9.800782 0l6.929687 6.929688c2.707031 2.707031 2.707031 7.097656 0 9.804687-1.300781 1.296875-3.0625 2.027344-4.898437 2.027344zm0 0"/><path d="m305 235.65625c-3.828125 0-6.929688-3.105469-6.929688-6.933594 0-1.835937.730469-3.597656 2.03125-4.898437l6.929688-6.929688c2.707031-2.707031 7.09375-2.707031 9.800781 0 2.707031 2.703125 2.707031 7.09375 0 9.796875l-6.929687 6.933594c-1.300782 1.300781-3.0625 2.03125-4.902344 2.03125zm0 0"/></g></svg>